<?xml version="1.0" encoding="utf-8"?>
<!-- Generator: Adobe Illustrator 19.0.0, SVG Export Plug-In . SVG Version: 6.00 Build 0)  -->
<svg version="1.1" id="Layer_1" xmlns="http://www.w3.org/2000/svg" xmlns:xlink="http://www.w3.org/1999/xlink" x="0px" y="0px"
	 viewBox="-131 8 230 85" style="enable-background:new -131 8 230 85;" xml:space="preserve">
<style type="text/css">
	.st0{fill:#1A1A1A;}
</style>
<g id="Layer_2">
</g>
<path id="S" class="st0" d="M77,59.7c0,7.7-5.9,13.8-17.2,13.8c-11,0-16.7-6.4-17.5-7.2l4.1-7.2c3.8,4.3,9.4,6.1,13.5,6.1
	c5.7,0,8.9-2.1,8.9-5.1s-3.1-4.5-8.7-5.4c-12.2-1.9-16.3-6.4-16.3-12.9c0-7.2,5.8-13.4,16.5-13.4c1.9,0,8.4,0.1,14.7,5.2l-3.4,7
	c-1-0.8-5.2-4.1-11.4-4.1c-4.3,0-8.2,1.2-8.2,4.7c0,2.9,2.5,4,8.7,5C70,47.9,77,50.5,77,59.7z"/>
<path id="O" class="st0" d="M39.1,51c0,12.4-10.1,22.5-22.5,22.5S-5.8,63.4-5.8,51S4.3,28.5,16.7,28.5S39.1,38.6,39.1,51z M31,51
	c0-7.9-6.4-14.3-14.3-14.3S2.4,43.1,2.4,51s6.4,14.3,14.3,14.3S31,58.9,31,51z"/>
<path id="K" class="st0" d="M-4.8,72.5h-10.3l-16.3-18.8v18.8h-8.2v-43h8.2v17.8l15.2-17.8h10.3L-24.2,50L-4.8,72.5z"/>
<path id="I" class="st0" d="M-55.9,72.5v-43h8.2v42.9L-55.9,72.5L-55.9,72.5z"/>
<path id="O_1_" class="st0" d="M-71.3,36.7v28.5h-28.5V36.7H-71.3 M-64.1,29.6H-107v42.9h42.9V29.6L-64.1,29.6z"/>
</svg>
